<svg xmlns="http://www.w3.org/2000/svg" xmlns:xlink="http://www.w3.org/1999/xlink"
    aria-hidden="true" role="img"
    width="1em" height="1em" viewBox="0 0 24 24">
    <path fill="none" stroke="#2dd4bf" stroke-linecap="round" stroke-linejoin="round"
        stroke-width="2"
        d="m11.414 10l-7.383 7.418a2.091 2.091 0 0 0 0 2.967a2.11 2.11 0 0 0 2.976 0L14.414 13m3.707 2.293l2.586-2.586a1 1 0 0 0 0-1.414l-7.586-7.586a1 1 0 0 0-1.414 0L9.121 6.293a1 1 0 0 0 0 1.414l7.586 7.586a1 1 0 0 0 1.414 0"></path>
</svg>